<svg height="72" width="72" xmlns="http://www.w3.org/2000/svg">
    <path d="M26.6516,53L45.3478,53C48.312,50.0486 51.0025,47.3516 51.6883,46.6081C53.3863,44.767 58.1481,39.2416 58.1481,31.7156C58.1481,18.0609 47.9969,8.8519 36,8.8519C24.0031,8.8519 13.8519,18.0609 13.8519,31.7156C13.8519,39.2416 18.615,44.767 20.3117,46.6081C20.9969,47.3516 23.6873,50.0486 26.6516,53ZM36,67.7059C36,67.7059 19.5751,51.4839 17.5833,49.3226C15.5915,47.1612 10,40.6749 10,31.84C10,15.8106 21.9167,5 36,5C50.0833,5 62,15.8106 62,31.84C62,40.6749 56.41,47.1612 54.4167,49.3226C52.4233,51.4839 36,67.7059 36,67.7059Z" fill="white"/>
    <path d="M36,31m-8,0a8,8 0,1 1,16 0a8,8 0,1 1,-16 0" fill="white"/>
</svg>
