<svg height="72" width="72" xmlns="http://www.w3.org/2000/svg">
    <path d="M48.9,41l-4.152,0l0,-12.168l-3.408,2.088l-1.848,-2.808l5.616,-3.384l3.792,0z" fill="white"/>
    <path opacity="0.4" d="M46,56C33.2975,56 23,45.7025 23,33C23,20.2975 33.2975,10 46,10C58.7025,10 69,20.2975 69,33C69,45.7025 58.7025,56 46,56ZM46,49C54.8366,49 62,41.8366 62,33C62,24.1634 54.8366,17 46,17C37.1634,17 30,24.1634 30,33C30,41.8366 37.1634,49 46,49Z" fill="white"/>
    <path d="M17.9955,28L30.7968,28C30.2797,29.5731 30,31.2539 30,33C30,41.8366 37.1634,49 46,49C47.7461,49 49.4269,48.7203 51,48.2032L51,67L41,67L41,55.455C32.3113,53.5289 25.4711,46.6887 23.545,38L17.995,38L17.9955,28Z" fill="white"/>
    <path d="M0.82,33.01l18.187,-10.5l0,21z" fill="white"/>
</svg>
