<svg height="72" width="72" xmlns="http://www.w3.org/2000/svg">
    <path opacity="0.4" d="M28,56C15.2975,56 5,45.7025 5,33C5,20.2975 15.2975,10 28,10C40.7025,10 51,20.2975 51,33C51,45.7025 40.7025,56 28,56ZM28,49C36.8366,49 44,41.8366 44,33C44,24.1634 36.8366,17 28,17C19.1634,17 12,24.1634 12,33C12,41.8366 19.1634,49 28,49Z" fill="white"/>
    <path d="M44.7646,17.2507L50.1297,14.1532L55.1366,22.8094L43.6106,29.464C43.2064,27.6721 42.5015,25.9941 41.5517,24.4858C38.7196,19.9884 33.7101,17 28.0027,17C19.1661,17 12.0027,24.1634 12.0027,33C12.0027,41.3307 18.3695,48.1744 26.5027,48.9306C26.9965,48.9765 27.4969,49 28.0027,49C29.7488,49 31.4296,48.7203 33.0027,48.2032L33.0027,67L23.0027,67L23.0027,55.455C17.643,54.2669 12.9866,51.2088 9.7533,47.0004L6.12,49.0981L3.12,43.9019L6.749,41.8067C5.6238,39.0941 5.0027,36.1196 5.0027,33C5.0027,29.8804 5.6238,26.9059 6.749,24.1933L3.12,22.0981L6.12,16.9019L9.7533,18.9996C13.3827,14.2757 18.8051,11.0012 25.0027,10.1939L25.0027,6L31.0027,6L31.0027,10.1939C36.403,10.8973 41.2148,13.4741 44.7646,17.2507Z" fill="white"/>
    <path d="M67.308,10.003l-10.5,18.187l-10.5,-18.187z" fill="white"/>
    <path d="M33.968,37.64l-1.752,0l0,3.36l-4.176,0l-0.024,-3.36l-6.84,0l0,-2.808l4.536,-10.56l3.648,1.32l-3.792,8.88l2.496,0l0.48,-3.696l3.672,0l0,3.696l1.752,0z" fill="white"/>
</svg>