<svg height="72" width="72" xmlns="http://www.w3.org/2000/svg">
    <path opacity="0.4" d="M44,56C56.7025,56 67,45.7025 67,33C67,20.2975 56.7025,10 44,10C31.2975,10 21,20.2975 21,33C21,45.7025 31.2975,56 44,56ZM44,49C35.1634,49 28,41.8366 28,33C28,24.1634 35.1634,17 44,17C52.8366,17 60,24.1634 60,33C60,41.8366 52.8366,49 44,49Z" fill="white"/>
    <path d="M58.0041,51.2467L60.9707,54.2132L65.2133,49.9706L62.2468,47.004C64.6526,43.8739 66.2712,40.1072 66.8062,36L71.0001,36L71.0001,30L66.8062,30C66.2712,25.8928 64.6526,22.1261 62.2468,18.996L65.2133,16.0294L60.9707,11.7868L58.0041,14.7533C54.874,12.3475 51.1073,10.7289 47.0001,10.1939L47.0001,6L41.0001,6L41.0001,10.1939C36.8929,10.7289 33.1262,12.3475 29.9961,14.7533L27.0295,11.7868L22.7869,16.0294L25.7534,18.996C23.3475,22.1261 21.729,25.8928 21.194,30L17.0001,30L17.0001,36L21.194,36C21.3546,37.2333 21.613,38.436 21.961,39.5999L16.25,42.8972L21.2575,51.5531L33.102,44.7147C31.6665,43.3787 30.4769,41.782 29.6086,40C28.5782,37.8856 28.0001,35.5103 28.0001,33C28.0001,24.1634 35.1635,17 44.0001,17C52.8366,17 60.0001,24.1634 60.0001,33C60.0001,41.5007 53.3708,48.4531 45.0001,48.9693C44.6694,48.9897 44.3359,49 44.0001,49C42.254,49 40.5732,48.7203 39.0001,48.2032L39.0001,67L49.0001,67L49.0001,55.455C52.3306,54.7167 55.3895,53.2564 58.0041,51.2467Z" fill="white"/>
    <path d="M5.272,54.983l10.5,-18.186l10.5,18.186z" fill="white"/>
    <path d="M49.064,27.584l-5.952,13.848l-3.864,-1.296l5.352,-12.216l-6.384,0l0,-3.192l10.848,0z" fill="white"/>
</svg>