<svg width="20" height="20" viewBox="0 0 20 20" fill="none" xmlns="http://www.w3.org/2000/svg">
<path fill-rule="evenodd" clip-rule="evenodd" d="M19.5 10C19.5 4.75329 15.2467 0.5 10 0.5C4.75329 0.5 0.5 4.75329 0.5 10C0.5 15.2467 4.75329 19.5 10 19.5C15.2467 19.5 19.5 15.2467 19.5 10ZM1 10C1 5.02944 5.02944 1 10 1C14.9706 1 19 5.02944 19 10C19 14.9706 14.9706 19 10 19C5.02944 19 1 14.9706 1 10Z" fill="white"/>
<circle cx="10" cy="10" r="9" fill="#45C094"/>
<path fill-rule="evenodd" clip-rule="evenodd" d="M19 10C19 5.02944 14.9706 1 10 1C5.02944 1 1 5.02944 1 10C1 14.9706 5.02944 19 10 19C14.9706 19 19 14.9706 19 10ZM2 10C2 5.58172 5.58172 2 10 2C14.4183 2 18 5.58172 18 10C18 14.4183 14.4183 18 10 18C5.58172 18 2 14.4183 2 10Z" fill="#233459" fill-opacity="0.35"/>
<path d="M13.3335 6.66667H6.66683C6.20433 6.66667 5.83766 7.0375 5.83766 7.5L5.8335 12.5C5.8335 12.9625 6.20433 13.3333 6.66683 13.3333H13.3335C13.796 13.3333 14.1668 12.9625 14.1668 12.5V7.5C14.1668 7.0375 13.796 6.66667 13.3335 6.66667ZM13.3335 12.0833C13.3335 12.3125 13.146 12.5 12.9168 12.5H7.0835C6.85433 12.5 6.66683 12.3125 6.66683 12.0833V7.91667C6.66683 7.6875 6.85433 7.5 7.0835 7.5H12.9168C13.146 7.5 13.3335 7.6875 13.3335 7.91667V12.0833ZM10.8335 9.16667C11.0627 9.16667 11.2502 8.97917 11.2502 8.75C11.2502 8.52083 11.0627 8.33333 10.8335 8.33333H10.4168V8.32917C10.4168 8.1 10.2293 7.9125 10.0002 7.9125C9.771 7.9125 9.5835 8.1 9.5835 8.32917V8.33333H9.16683C8.93766 8.33333 8.75016 8.52083 8.75016 8.75V10C8.75016 10.2292 8.93766 10.4167 9.16683 10.4167H10.4168V10.8333H9.16683C8.93766 10.8333 8.75016 11.0208 8.75016 11.25C8.75016 11.4792 8.93766 11.6667 9.16683 11.6667H9.5835C9.5835 11.8958 9.771 12.0833 10.0002 12.0833C10.2293 12.0833 10.4168 11.8958 10.4168 11.6667H10.8335C11.0627 11.6667 11.2502 11.4792 11.2502 11.25V10C11.2502 9.77083 11.0627 9.58333 10.8335 9.58333H9.5835V9.16667H10.8335Z" fill="white"/>
</svg>
