<svg width="48" height="49" viewBox="0 0 48 49" fill="none" xmlns="http://www.w3.org/2000/svg">
<circle cx="24" cy="24.5" r="20" fill="white"/>
<path opacity="0.35" d="M24 0.5C19.2533 0.5 14.6131 1.90758 10.6663 4.54473C6.7195 7.1819 3.6434 10.9302 1.8269 15.3156C0.0103973 19.701 -0.464902 24.5266 0.461198 29.1822C1.3872 33.8377 3.673 38.1141 7.0294 41.4706C10.3859 44.827 14.6623 47.1128 19.3178 48.0388C23.9734 48.9649 28.799 48.4896 33.1844 46.6731C37.5698 44.8566 41.3181 41.7805 43.9553 37.8337C46.5924 33.8869 48 29.2468 48 24.5C48 18.1348 45.4714 12.0303 40.9706 7.5294C36.4697 3.02856 30.3652 0.5 24 0.5ZM38.16 10.38C40.9562 13.1774 42.8603 16.741 43.6313 20.6204C44.4024 24.4998 44.0058 28.5208 42.4918 32.1748C40.9778 35.8289 38.4144 38.952 35.1256 41.1492C31.8368 43.3465 27.9703 44.5193 24.015 44.5193C20.0597 44.5193 16.1933 43.3465 12.9044 41.1492C9.6156 38.952 7.0522 35.8289 5.5382 32.1748C4.0242 28.5208 3.6277 24.4998 4.3987 20.6204C5.1698 16.741 7.0738 13.1774 9.87 10.38L24 24.5L38.14 10.36L38.16 10.38Z" fill="#B2B8C5"/>
<path d="M30.2401 24.05C30.2421 25.2822 29.8786 26.4873 29.1957 27.5129C28.5128 28.5385 27.5411 29.3386 26.4034 29.812C25.2658 30.2853 24.0134 30.4107 22.8045 30.1723C21.5956 29.9338 20.4846 29.3422 19.6119 28.4724C18.7392 27.6025 18.1441 26.4934 17.9018 25.2852C17.6594 24.0771 17.7808 22.8243 18.2505 21.6851C18.7202 20.546 19.5172 19.5717 20.5406 18.8855C21.564 18.1993 22.7679 17.832 24.0001 17.83C24.8186 17.8274 25.6296 17.9863 26.3865 18.2977C27.1435 18.6091 27.8315 19.0669 28.4112 19.6447C28.9909 20.2226 29.4509 20.9092 29.7647 21.6651C30.0785 22.4211 30.2401 23.2315 30.2401 24.05ZM24.0001 4.50002C29.2991 4.50115 34.381 6.6052 38.1301 10.35L41.0001 7.53C40.7101 7.23 40.4001 6.94 40.0901 6.65C35.5129 2.56713 29.5512 0.38307 23.4197 0.54286C17.2882 0.70265 11.4484 3.19427 7.0901 7.51L9.9301 10.36C13.6591 6.6206 18.7191 4.51312 24.0001 4.50002Z" fill="#2BDACD"/>
</svg>
