<svg width="20" height="20" viewBox="0 0 20 20" fill="none" xmlns="http://www.w3.org/2000/svg">
<path fill-rule="evenodd" clip-rule="evenodd" d="M19.5 10C19.5 4.75329 15.2467 0.5 10 0.5C4.75329 0.5 0.5 4.75329 0.5 10C0.5 15.2467 4.75329 19.5 10 19.5C15.2467 19.5 19.5 15.2467 19.5 10ZM1 10C1 5.02944 5.02944 1 10 1C14.9706 1 19 5.02944 19 10C19 14.9706 14.9706 19 10 19C5.02944 19 1 14.9706 1 10Z" fill="white"/>
<circle cx="10" cy="10" r="9" fill="#C6CDD9"/>
<path fill-rule="evenodd" clip-rule="evenodd" d="M19 10C19 5.02944 14.9706 1 10 1C5.02944 1 1 5.02944 1 10C1 14.9706 5.02944 19 10 19C14.9706 19 19 14.9706 19 10ZM2 10C2 5.58172 5.58172 2 10 2C14.4183 2 18 5.58172 18 10C18 14.4183 14.4183 18 10 18C5.58172 18 2 14.4183 2 10Z" fill="#233459" fill-opacity="0.35"/>
<path d="M12 7V10C12 10.55 12.45 11 13 11H13.5V14.5C13.5 14.775 13.725 15 14 15C14.275 15 14.5 14.775 14.5 14.5V5.565C14.5 5.24 14.195 5 13.88 5.075C12.8 5.34 12 6.255 12 7ZM9.5 8.5H8.5V5.5C8.5 5.225 8.275 5 8 5C7.725 5 7.5 5.225 7.5 5.5V8.5H6.5V5.5C6.5 5.225 6.275 5 6 5C5.725 5 5.5 5.225 5.5 5.5V8.5C5.5 9.605 6.395 10.5 7.5 10.5V14.5C7.5 14.775 7.725 15 8 15C8.275 15 8.5 14.775 8.5 14.5V10.5C9.605 10.5 10.5 9.605 10.5 8.5V5.5C10.5 5.225 10.275 5 10 5C9.725 5 9.5 5.225 9.5 5.5V8.5Z" fill="white"/>
</svg>
