<svg width="20" height="20" viewBox="0 0 20 20" fill="none" xmlns="http://www.w3.org/2000/svg">
<path fill-rule="evenodd" clip-rule="evenodd" d="M19.5 10C19.5 4.75329 15.2467 0.5 10 0.5C4.75329 0.5 0.5 4.75329 0.5 10C0.5 15.2467 4.75329 19.5 10 19.5C15.2467 19.5 19.5 15.2467 19.5 10ZM1 10C1 5.02944 5.02944 1 10 1C14.9706 1 19 5.02944 19 10C19 14.9706 14.9706 19 10 19C5.02944 19 1 14.9706 1 10Z" fill="white"/>
<circle cx="10" cy="10" r="9" fill="#69C8FF"/>
<path fill-rule="evenodd" clip-rule="evenodd" d="M19 10C19 5.02944 14.9706 1 10 1C5.02944 1 1 5.02944 1 10C1 14.9706 5.02944 19 10 19C14.9706 19 19 14.9706 19 10ZM2 10C2 5.58172 5.58172 2 10 2C14.4183 2 18 5.58172 18 10C18 14.4183 14.4183 18 10 18C5.58172 18 2 14.4183 2 10Z" fill="#233459" fill-opacity="0.35"/>
<path d="M13.885 7.615L13.89 7.61L12.295 6.015C12.15 5.87 11.91 5.87 11.765 6.015C11.62 6.16 11.62 6.4 11.765 6.545L12.555 7.335C12.03 7.535 11.675 8.07 11.765 8.69C11.845 9.24 12.315 9.685 12.865 9.745C13.1 9.77 13.305 9.73 13.5 9.645V13.25C13.5 13.525 13.275 13.75 13 13.75C12.725 13.75 12.5 13.525 12.5 13.25V11C12.5 10.45 12.05 10 11.5 10H11V6.5C11 5.95 10.55 5.5 10 5.5H7C6.45 5.5 6 5.95 6 6.5V14C6 14.275 6.225 14.5 6.5 14.5H10.5C10.775 14.5 11 14.275 11 14V10.75H11.75V13.18C11.75 13.835 12.22 14.43 12.87 14.495C13.62 14.57 14.25 13.985 14.25 13.25V8.5C14.25 8.155 14.11 7.84 13.885 7.615ZM10 9H7V7C7 6.725 7.225 6.5 7.5 6.5H9.5C9.775 6.5 10 6.725 10 7V9ZM13 9C12.725 9 12.5 8.775 12.5 8.5C12.5 8.225 12.725 8 13 8C13.275 8 13.5 8.225 13.5 8.5C13.5 8.775 13.275 9 13 9Z" fill="white"/>
</svg>
