<svg width="20" height="25" viewBox="-2.5 0 25 25" fill="none" xmlns="http://www.w3.org/2000/svg">
<path fill-rule="evenodd" clip-rule="evenodd" d="M19.6465 9.49197C19.6465 4.3293 15.374 0.135498 10.1378 0.135498C4.90466 0.135498 0.646484 4.32636 0.646484 9.49197C0.646484 13.3665 1.50614 15.7662 5.27101 19.528L10.1371 24.3378L15.0229 19.5271C18.7868 15.7662 19.6465 13.3665 19.6465 9.49197ZM1.15033 9.23084C1.29093 4.46031 5.27121 0.635498 10.1378 0.635498C15.0929 0.635498 19.1465 4.60066 19.1465 9.49197L19.1435 10.0881L19.1318 10.5487C19.0455 12.7805 18.4514 15.4752 14.369 19.4705L10.1378 23.6355L5.64482 19.1939C1.63772 15.1731 1.19998 12.4897 1.15229 10.2502L1.14693 9.78766L1.15033 9.23084Z" fill="white"/>
<path fill-rule="evenodd" clip-rule="evenodd" d="M10.1378 23.6355L5.92402 19.4705C1.17695 14.8248 1.14648 11.9376 1.14648 9.49197C1.14648 4.60066 5.18273 0.635498 10.1378 0.635498C15.0929 0.635498 19.1465 4.60066 19.1465 9.49197C19.1465 11.9376 19.116 14.8248 14.369 19.4705L10.1378 23.6355Z" fill="#08A8A4"/>
<path fill-rule="evenodd" clip-rule="evenodd" d="M19.1465 9.49197C19.1465 4.60066 15.0929 0.635498 10.1378 0.635498C5.18273 0.635498 1.14648 4.60066 1.14648 9.49197C1.14648 11.9376 1.17695 14.8248 5.92402 19.4705L10.1378 23.6355L14.369 19.4705C18.2616 15.661 18.9827 13.034 19.1162 10.8632L19.1318 10.5487L19.1435 10.0881L19.1465 9.49197ZM2.14648 9.49197C2.14648 5.16018 5.72778 1.6355 10.1378 1.6355C14.5517 1.6355 18.1465 5.16403 18.1465 9.49197L18.1448 9.77991C18.1056 13.0059 17.3744 14.9877 14.2467 18.1795L13.6695 18.7558L10.1385 22.2305L6.33178 18.4676C2.86597 15.0072 2.14648 12.9874 2.14648 9.49197Z" fill="#233459" fill-opacity="0.35"/>
</svg>
