<svg width="56" height="69" viewBox="-6.5 0 69 69" fill="none" xmlns="http://www.w3.org/2000/svg">
<path fill-rule="evenodd" clip-rule="evenodd" d="M55.5 27.7191C55.5 12.6956 43.1666 0.5 28 0.5C12.8333 0.5 0.5 12.6955 0.5 27.7191C0.5 35.8869 4.97378 45.7061 13.064 53.8473L28 68.7053L42.9379 53.8454C51.0262 45.7061 55.5 35.887 55.5 27.7191ZM1 27.7191C1 12.9625 13.1187 1 28 1C42.8812 1 55 12.9625 55 27.7191C55 34.9744 51.2254 44.795 42.5918 53.4845L28 68L13.4082 53.4845C4.77459 44.795 1 34.9744 1 27.7191Z" fill="white"/>
<path fill-rule="evenodd" clip-rule="evenodd" d="M13.8514 53.9253C4.90363 45.1286 1 35.0974 1 27.7191C1 12.9625 13.1187 1 28 1C42.8812 1 55 12.9625 55 27.7191C55 35.0974 51.0964 45.1286 42.1486 53.9253L28 68L13.8514 53.9253Z" fill="#E50029"/>
<path fill-rule="evenodd" clip-rule="evenodd" d="M55 27.7191C55 12.9625 42.8812 1 28 1C13.1187 1 1 12.9625 1 27.7191C1 35.0974 4.90363 45.1286 13.8514 53.9253L28 68L42.5918 53.4845C51.2254 44.795 55 34.9744 55 27.7191ZM2 27.7191C2 13.5278 13.658 2 28 2C42.3419 2 54 13.5278 54 27.7191L53.9957 28.1435C53.8395 35.9535 49.3947 45.3993 41.4475 53.2122L27.999 66.589L14.1264 52.7884C6.30292 44.9132 2 35.4686 2 27.7191Z" fill="#233459" fill-opacity="0.35"/>
<path fill-rule="evenodd" clip-rule="evenodd" d="M28 21C31.8668 21 35 24.1332 35 28C35 31.8668 31.8668 35 28 35C24.1332 35 21 31.8668 21 28C21 24.1332 24.1332 21 28 21Z" fill="white"/>
</svg>
