<svg width="168" height="168" viewBox="0 0 168 168" fill="none" xmlns="http://www.w3.org/2000/svg">
<path d="M102.666 94.6667H98.4529L96.9595 93.2267C102.186 87.1467 105.333 79.2533 105.333 70.6667C105.333 51.52 89.8129 36 70.6662 36C52.4262 36 37.4929 50.08 36.1595 68H46.9329C48.2662 56 58.2929 46.6667 70.6662 46.6667C83.9462 46.6667 94.6662 57.3867 94.6662 70.6667C94.6662 83.9467 83.9462 94.6667 70.6662 94.6667C69.7595 94.6667 68.9062 94.5067 67.9995 94.4V105.173C68.9062 105.28 69.7595 105.333 70.6662 105.333C79.2529 105.333 87.1462 102.187 93.2262 96.96L94.6662 98.4533V102.667L121.333 129.28L129.28 121.333L102.666 94.6667Z" fill="#9FACD3"/>
<path d="M54.5064 77.7067L41.333 90.88L28.1597 77.7067L24.373 81.4933L37.5464 94.6667L24.373 107.84L28.1597 111.627L41.333 98.4533L54.5064 111.627L58.293 107.84L45.1197 94.6667L58.293 81.4933L54.5064 77.7067Z" fill="#9FACD3"/>
</svg>
