<svg width="16" height="16" viewBox="0 0 16 16" fill="none" xmlns="http://www.w3.org/2000/svg">
<path d="M14 11C13.263 11 12.625 11.405 12.278 12H3.5C2.673 12 2 11.327 2 10.5C2 9.673 2.673 9 3.5 9H12.5C14.43 9 16 7.43 16 5.5C16 3.57 14.43 2 12.5 2H3.722C3.375 1.405 2.737 1 2 1C0.897 1 0 1.897 0 3C0 4.103 0.897 5 2 5C2.737 5 3.375 4.595 3.722 4H12.5C13.327 4 14 4.673 14 5.5C14 6.327 13.327 7 12.5 7H3.5C1.57 7 0 8.57 0 10.5C0 12.43 1.57 14 3.5 14H12.278C12.625 14.595 13.263 15 14 15C15.103 15 16 14.103 16 13C16 11.897 15.103 11 14 11Z" fill="#0F1621"/>
</svg>
