<svg width="24" height="24" viewBox="0 0 24 24" fill="none" xmlns="http://www.w3.org/2000/svg">
<path fill-rule="evenodd" clip-rule="evenodd" d="M9.4529 6H4.02692C3.79579 6 3.58221 6.1 3.43008 6.28571L2.11352 7.50286C2.00527 7.62571 1.26214 7.71429 1.08367 7.71429H0V8.85429H0.834991L0.478057 9.25429C0.358104 9.39714 0.292569 9.71714 0.292569 10V12.9886C0.292569 13.5457 0.773552 14 1.34406 14H3.21826V12.8571H10.2399V14H10.825V16.9886C10.825 17.5457 11.306 18 11.8765 18H13.7507V16.8571H20.7724V18H22.6682C23.2387 18 23.6981 17.5457 23.6981 16.9886V14C23.6981 13.7171 23.6542 13.3971 23.5436 13.2629L23.1837 12.8571H24V11.7143H22.9292C22.7595 11.7143 22.0217 11.6429 21.9169 11.5286L20.574 10.2743C20.4307 10.1 20.2165 10 19.9854 10H14.5594C14.3283 10 14.1147 10.1 13.9626 10.2857L13.1656 11.0225V10C13.1656 9.71714 13.1217 9.39714 13.0111 9.26286L12.6513 8.85714H13.4675V7.71429H12.3967C12.227 7.71429 11.4892 7.64286 11.3844 7.52857L10.0415 6.27429C9.89819 6.1 9.68403 6 9.4529 6ZM11.4149 11.7143V10.5714H9.65477V11.7143H11.4149ZM6.72908 9.43714C4.0117 9.05543 2.6536 8.86171 2.65477 8.85714C2.65886 8.85314 3.25922 8.312 4.45699 7.23429L4.47162 7.21429C4.51258 7.16571 4.55647 7.14286 4.61205 7.14286H8.86776C8.92101 7.14286 8.96723 7.16571 9 7.20286L9.01404 7.22286L10.8075 8.85714C10.8098 8.86 9.44997 9.05314 6.72908 9.43714ZM9.07431 11.7143H4.38853V10.5714H9.07431V11.7143ZM3.80808 11.7143H2.04798V10.5714H3.80808V11.7143ZM17.2616 13.4371C14.5442 13.0554 13.1861 12.8617 13.1872 12.8571C13.1913 12.8531 13.7917 12.312 14.9895 11.2343L15.0041 11.2143C15.0451 11.1657 15.0889 11.1429 15.1445 11.1429H19.4002C19.4535 11.1429 19.4997 11.1657 19.5325 11.2029L19.5465 11.2229L21.34 12.8571C21.3423 12.86 19.9824 13.0531 17.2616 13.4371ZM21.9473 15.7143H20.1872V14.5714H21.9473V15.7143ZM19.6068 15.7143H14.921V14.5714H19.6068V15.7143ZM14.3406 15.7143H12.5805V14.5714H14.3406V15.7143Z" fill="#0F1621"/>
</svg>
