<svg width="24" height="24" viewBox="0 0 24 24" fill="none" xmlns="http://www.w3.org/2000/svg">
<path fill-rule="evenodd" clip-rule="evenodd" d="M10.825 16.5883V16.9886C10.825 17.5458 11.306 18 11.8765 18H13.7507V16.8572H20.7724V18H22.6682C23.2387 18 23.6981 17.5458 23.6981 16.9886V14C23.6981 13.7172 23.6542 13.3972 23.5436 13.2629L23.1837 12.8572H24V11.7143H22.9292C22.7595 11.7143 22.0217 11.6429 21.9169 11.5286L20.574 10.2743C20.4307 10.1 20.2165 10 19.9854 10H18.6766L17.3146 11.1429H19.4002C19.4535 11.1429 19.4997 11.1658 19.5325 11.2029L19.5465 11.2229L21.34 12.8572C21.3423 12.86 19.9824 13.0532 17.2616 13.4372C16.34 13.3077 15.5748 13.1999 14.9659 13.1137L13.2286 14.5715H14.3406V15.7143H12.5805V15.1153L10.825 16.5883ZM20.1872 15.7143H21.9473V14.5715H20.1872V15.7143ZM14.921 15.7143H19.6068V14.5715H14.921V15.7143Z" fill="#0F1621"/>
<path fill-rule="evenodd" clip-rule="evenodd" d="M12.0921 7.69264C11.814 7.66332 11.4551 7.60572 11.3844 7.52861L10.0415 6.27432C9.89819 6.10004 9.68403 6.00004 9.4529 6.00004H4.02692C3.79579 6.00004 3.58221 6.10004 3.43008 6.28575L2.11352 7.5029C2.00527 7.62575 1.26214 7.71432 1.08367 7.71432H0V8.85432H0.834991L0.478057 9.25432C0.358104 9.39718 0.292569 9.71718 0.292569 10V12.9886C0.292569 13.5458 0.773552 14 1.34406 14H3.21826V12.8572H5.93726L7.29927 11.7143H4.38853V10.5715H8.66127L10.6812 8.87651C10.287 8.93422 8.96939 9.12101 6.72908 9.43718C4.0117 9.05547 2.6536 8.86175 2.65477 8.85718C2.65886 8.85318 3.25922 8.31204 4.45699 7.23432L4.47162 7.21432C4.51258 7.16575 4.55647 7.1429 4.61205 7.1429H8.86776C8.92101 7.1429 8.96723 7.16575 9 7.2029L9.01404 7.2229L10.758 8.81209L12.0921 7.69264ZM2.04798 11.7143H3.80808V10.5715H2.04798V11.7143Z" fill="#0F1621"/>
<path d="M2.28558 18.5321L20.6706 3.10522L21.9562 4.63731L3.57115 20.0642L2.28558 18.5321Z" fill="#0F1621"/>
</svg>
